<svg xmlns="http://www.w3.org/2000/svg" width="88.903" height="69.217" viewBox="0 0 88.903 69.217">
  <path id="health-care-healthcare-health-service-health-clinic-svgrepo-com" d="M18.271,11.639A9.363,9.363,0,0,1,27.409,2a9.384,9.384,0,0,1,9.138,9.639,9.4,9.4,0,0,1-9.138,9.639A9.384,9.384,0,0,1,18.271,11.639ZM68.677,52.983H52.1V37.353A13.786,13.786,0,0,0,38.69,23.584H16.464C8.672,23.584,2,30.707,2,37.725V66.38c-.009,3.175,2.117,4.834,4.233,4.838s4.233-1.654,4.233-4.838V38.469h2.822V71.217H40.807V38.469h2.822l.029,18.745c-.019,3.248,1.885,4.632,3.852,4.7H68.677C74.45,61.914,74.45,52.983,68.677,52.983Zm21.4-30.545a10.072,10.072,0,0,0-3.416-4.419,9.843,9.843,0,0,0-4.576-1.9,9.725,9.725,0,0,0-4.254.374,8.047,8.047,0,0,0-4.351,3.094,7.656,7.656,0,0,0-4.351-3.094,9.685,9.685,0,0,0-4.254-.374,9.5,9.5,0,0,0-4.576,1.9,10.521,10.521,0,0,0-3.416,4.419,11.824,11.824,0,0,0-.58,6.969,19.749,19.749,0,0,0,3.642,7.955,33.264,33.264,0,0,0,6.027,6.357c1.321,1.122,2.739,2.142,4.093,3.162l.419.34c.709.544,2.127,1.428,2.772,1.8.032.034.129.034.193.068.065-.034.161-.034.193-.068.612-.408,2.03-1.292,2.772-1.8l.419-.34c1.354-1.02,2.739-2.074,4.093-3.162a34.3,34.3,0,0,0,6.027-6.357,19.544,19.544,0,0,0,3.642-7.955A11.57,11.57,0,0,0,90.075,22.438ZM88.366,28.9a16.615,16.615,0,0,1-3.223,6.935,30.667,30.667,0,0,1-5.608,5.915c-1.289,1.088-2.675,2.108-4.029,3.094l-.419.34c-.355.272-1.031.714-1.612,1.088-.58-.374-1.257-.816-1.612-1.088l-.419-.34c-1.322-.986-2.707-2.006-4.029-3.094a29.725,29.725,0,0,1-5.608-5.915c-.612-.918-1.16-1.768-1.644-2.584h3.867l1.45,3.977,2.933-8.193,4.158,11.559,3-8.295.355,1.02h3.8a1.7,1.7,0,0,0,1.579,1.02,1.872,1.872,0,0,0,0-3.739,1.727,1.727,0,0,0-1.579,1.02H77.054L75.6,27.572l-3,8.295L68.449,24.308,65.483,32.57l-.355-.986H59.392a13.045,13.045,0,0,1-.773-2.652,9.178,9.178,0,0,1,.483-5.473,8.02,8.02,0,0,1,2.578-3.4,7.923,7.923,0,0,1,3.545-1.5,7.669,7.669,0,0,1,3.255.272,5.661,5.661,0,0,1,3.159,2.278c.193.272.355.578.548.85.065.17.193.34.258.51l1.031,1.7,1.031-1.7a1.913,1.913,0,0,0,.258-.51,6.155,6.155,0,0,1,.548-.85,5.464,5.464,0,0,1,3.159-2.278,6.722,6.722,0,0,1,3.255-.272,7.853,7.853,0,0,1,6.123,4.9A8.379,8.379,0,0,1,88.366,28.9Z" transform="translate(-2 -2)" fill="#8bd6ab"/>
</svg>
