<svg xmlns="http://www.w3.org/2000/svg" width="24.149" height="19.5" viewBox="0 0 24.149 19.5">
  <g id="menu-symbol-of-three-parallel-lines-svgrepo-com" transform="translate(0 -1.875)">
    <path id="Path_54" data-name="Path 54" d="M0,3.732A1.907,1.907,0,0,1,1.951,1.875H22.2a1.907,1.907,0,0,1,1.951,1.857A1.907,1.907,0,0,1,22.2,5.589H1.951A1.907,1.907,0,0,1,0,3.732ZM22.2,9.768H1.951a1.859,1.859,0,1,0,0,3.714H22.2a1.859,1.859,0,1,0,0-3.714Zm0,7.893H1.951a1.859,1.859,0,1,0,0,3.714H22.2a1.859,1.859,0,1,0,0-3.714Z" transform="translate(0 0)" fill="#8bd6ab"/>
  </g>
</svg>
