<svg id="chef-cooking-on-stove-svgrepo-com" xmlns="http://www.w3.org/2000/svg" width="61.176" height="80.896" viewBox="0 0 61.176 80.896">
  <g id="Group_10" data-name="Group 10">
    <path id="Path_24" data-name="Path 24" d="M25.364,12.205v7.911h12.92V11.978A4.533,4.533,0,0,0,36.5,3.136a5.053,5.053,0,0,0-9.1-.522,4.962,4.962,0,0,0-2.04,9.591Z" transform="translate(-1.404 0)" fill="#8bd6ab"/>
    <path id="Path_25" data-name="Path 25" d="M50.175,52.724H10.459v8.149H71.635V52.724Z" transform="translate(-10.459 20.023)" fill="#8bd6ab"/>
    <path id="Path_26" data-name="Path 26" d="M27.659,21.272l2.865,3.133,2.967-2.883A37.811,37.811,0,0,0,27.659,21.272Z" transform="translate(0.75 8.044)" fill="#8bd6ab"/>
    <path id="Path_27" data-name="Path 27" d="M32.775,46.16,28.7,51.933H19.022v1.322H17.268a.9.9,0,1,0,0,1.759h1.754V62.5H44.074V55.014h1.75a.9.9,0,1,0,0-1.759h-1.75V51.933h-14l3.852-5.461.546.147c6.383,1.709,9.1-6.495,2.761-8.193C33.016,37.3,26.58,35.7,23.871,32.647a1.47,1.47,0,0,1,.15-.1,12.843,12.843,0,0,1,1.863-.831v.707a13.89,13.89,0,0,0,1.745,1c2.716,1.731,7.069,2.889,10.15,3.709l.651.173c4.03,1.08,5.334,4.1,4.846,6.609a6.376,6.376,0,0,1-6.526,4.918,8.826,8.826,0,0,1-2.293-.312c-.122-.031-.261-.071-.381-.1l-1.7,2.277H45.422v1.322h.451a1.982,1.982,0,1,1,0,3.885h-.451v6.91h7.292V32.24c.088.059.182.11.27.173,3.76,2.674,3.4,7.328,2.829,10.977-.846,5.419,9.549,5.357,10.385,0,.961-6.146-.291-12.483-5.87-16.981-3.489-2.808-8.163-4.122-12.977-4.572L42.39,25.78,46.661,29.6l-1.749,1.307L34.289,21.4a38.483,38.483,0,0,0-4.015.583c-7.487,1.221-18.857,4.235-16.859,12.093C15.113,40.75,25.419,44.131,32.775,46.16Z" transform="translate(-9.474 8.697)" fill="#8bd6ab"/>
    <path id="Path_28" data-name="Path 28" d="M37.295,15.451H24.587a6.354,6.354,0,1,0,12.708,0Z" transform="translate(-0.524 5.86)" fill="#8bd6ab"/>
    <path id="Path_29" data-name="Path 29" d="M21,39.515l-.018,4.63h1.491l1.977-3.3C23.363,40.46,22.165,40.02,21,39.515Z" transform="translate(-3.749 14.973)" fill="#8bd6ab"/>
    <path id="Path_30" data-name="Path 30" d="M15.483,38.645a2.543,2.543,0,0,0,.116,1.333,3.733,3.733,0,0,0,.682,1.1c.3.312.58.539.792.776a2.905,2.905,0,0,1,.551.752.938.938,0,0,1,.029.8,2.169,2.169,0,0,1-.671.814,1.744,1.744,0,0,0,1.1-.517,1.469,1.469,0,0,0,.336-1.336,4.414,4.414,0,0,0-1.349-2,2.522,2.522,0,0,1-.765-1.635,3.612,3.612,0,0,1,.677-1.942A2.605,2.605,0,0,0,15.483,38.645Z" transform="translate(-8.658 13.965)" fill="#8bd6ab"/>
    <path id="Path_31" data-name="Path 31" d="M18.378,40.334a1.71,1.71,0,0,0,.078.9,2.532,2.532,0,0,0,.462.741c.2.214.392.369.536.527a1.956,1.956,0,0,1,.373.511.63.63,0,0,1,.019.541,1.45,1.45,0,0,1-.453.551,1.193,1.193,0,0,0,.745-.351,1,1,0,0,0,.227-.9,2.987,2.987,0,0,0-.912-1.353,1.686,1.686,0,0,1-.517-1.106,2.419,2.419,0,0,1,.459-1.318A1.778,1.778,0,0,0,18.378,40.334Z" transform="translate(-5.493 14.807)" fill="#8bd6ab"/>
  </g>
</svg>
