<svg id="vegetarian-diet-svgrepo-com" xmlns="http://www.w3.org/2000/svg" width="90.361" height="58.709" viewBox="0 0 90.361 58.709">
  <path id="Path_21" data-name="Path 21" d="M24.264,78.5a1.659,1.659,0,0,1-1.648,1.676c-4.191,0-11.835-7.59-15.029-17.013a1.677,1.677,0,0,1,1.025-2.128,1.635,1.635,0,0,1,2.1,1.041c3.007,8.87,9.921,14.748,11.908,14.748A1.66,1.66,0,0,1,24.264,78.5Zm66.1-2.857a1.663,1.663,0,0,1-1.649,1.636h-.041l-9.437-.229,5.841,4.657a1.7,1.7,0,0,1,.276,2.351,1.633,1.633,0,0,1-1.3.641,1.662,1.662,0,0,1-1.021-.354L75.27,78.155c-1.716,5.475-8.233,8.264-19.492,8.264-.585,0-1.182-.007-1.81-.02A68.108,68.108,0,0,1,36.633,83.83a12.882,12.882,0,0,1-7.105,2.585,7.9,7.9,0,0,1-3.082-.611,5.877,5.877,0,0,1-.9-.468,6.758,6.758,0,0,1-.9.468,9.353,9.353,0,0,1-7.614-.475C10.9,82.518,4.348,74.262,1.447,65.7-2.12,55.22.989,47.036,9.979,43.252c5.332-2.242,10.142-1.8,13.918,1.19V29.387a1.649,1.649,0,1,1,3.3,0v4.6a12.185,12.185,0,0,1,3.921-4.221,10.926,10.926,0,0,1,5.866-1.549,15.631,15.631,0,0,1,4.6.708,1.68,1.68,0,0,1,1.07,1.961c-.059.262-1.494,6.476-5.981,9.274a10.984,10.984,0,0,1-5.879,1.549,15.2,15.2,0,0,1-3.6-.438v3.173c3.775-2.993,8.586-3.435,13.917-1.187a18.4,18.4,0,0,1,4.739,2.92l-1.931-9.643a1.169,1.169,0,0,1,0-.368,2.6,2.6,0,0,1-.227-1.026c0-5.219,14.592-5.483,17.515-5.483s17.512.264,17.512,5.483a2.679,2.679,0,0,1-.225,1.039,1.715,1.715,0,0,1-.013.4L71.623,67.232a9.248,9.248,0,0,1,3.748,5.038l8.577-5.7a1.634,1.634,0,0,1,2.28.487,1.688,1.688,0,0,1-.483,2.318l-6.5,4.32,9.515.229A1.671,1.671,0,0,1,90.363,75.645ZM28.851,38.2a12.714,12.714,0,0,0,1.952.16,7.783,7.783,0,0,0,4.161-1.055c2.124-1.321,3.366-3.889,3.985-5.561a12.383,12.383,0,0,0-1.958-.167,7.755,7.755,0,0,0-4.149,1.056C30.734,33.947,29.473,36.521,28.851,38.2ZM68.6,65.587l5.963-26.63c-4.546,1.542-11.449,1.665-13.362,1.665s-8.893-.123-13.44-1.692l2.956,14.74a1.644,1.644,0,0,1,0,.672,20.475,20.475,0,0,1-.374,8.822c.745-.02,1.487-.039,2.234-.039.631,0,1.275.008,1.921.026C60.483,63.295,65.134,64.133,68.6,65.587ZM47.324,35.143c1.469.871,6.241,2.128,13.871,2.128S73.6,36.014,75.08,35.143c-1.476-.874-6.251-2.131-13.885-2.131S48.8,34.269,47.324,35.143Zm-14.78,47.21C27.8,80.3,24.687,77.519,24.77,74.072c.135-6.2,10.514-9.835,22.152-10.722,2.965-10.269-2.127-14.916-7.069-16.992C36.1,44.775,30.8,44.052,26.89,49.6c-.024.031-.056.041-.076.068a1.575,1.575,0,0,1-2.522,0c-.028-.029-.066-.036-.075-.067-3.918-5.55-9.209-4.826-12.968-3.247C6.1,48.523.766,53.447,4.575,64.618c2.584,7.648,8.532,15.242,13.818,17.668a6.105,6.105,0,0,0,5,.433A5.028,5.028,0,0,0,24.538,82a1.613,1.613,0,0,1,2.035,0,5.076,5.076,0,0,0,1.144.721A6.088,6.088,0,0,0,32.544,82.354Zm39.914-7.141c.094-4.257-3.593-6.966-10.906-8.1l-.1,4.536A1.663,1.663,0,0,1,59.8,73.284h-.041a1.664,1.664,0,0,1-1.607-1.715l.108-4.861c-1.214-.1-2.487-.176-3.858-.206-.618-.02-1.234-.027-1.843-.027-.682,0-1.346.02-2.009.033l-.107,4.871A1.664,1.664,0,0,1,48.8,73.016h-.042A1.662,1.662,0,0,1,47.151,71.3l.1-4.635a59.877,59.877,0,0,0-6.61.838l-.106,4.779a1.662,1.662,0,0,1-1.649,1.636H38.85A1.668,1.668,0,0,1,37.24,72.2l.089-3.96c-5.741,1.513-9.229,3.768-9.272,5.888-.075,3.457,9.775,8.514,25.991,8.9C66.219,83.345,72.336,80.694,72.458,75.212Z" transform="translate(-0.002 -27.71)" fill="#8bd6ab"/>
</svg>
