<svg xmlns="http://www.w3.org/2000/svg" width="57.895" height="71.65" viewBox="0 0 57.895 71.65">
  <g id="Group_35" data-name="Group 35" transform="translate(-178.105 -13.525)">
    <path id="Path_13" data-name="Path 13" d="M36.467,26.855A1.286,1.286,0,0,0,38.1,26.05a2.269,2.269,0,0,1,2.872-1.415A4.844,4.844,0,0,0,47.1,21.609a1.287,1.287,0,1,0-2.437-.827A2.266,2.266,0,0,1,41.8,22.2a4.85,4.85,0,0,0-6.134,3.026A1.289,1.289,0,0,0,36.467,26.855Z" transform="translate(179.139 18.665)" fill="#8bd6ab"/>
    <path id="Path_14" data-name="Path 14" d="M38.833,19.888a1.286,1.286,0,0,0,1.631-.805,2.261,2.261,0,0,1,2.872-1.415A4.844,4.844,0,0,0,49.47,14.64a1.286,1.286,0,1,0-2.435-.827,2.264,2.264,0,0,1-2.872,1.416,4.835,4.835,0,0,0-6.134,3.026A1.286,1.286,0,0,0,38.833,19.888Z" transform="translate(179.648 16.865)" fill="#8bd6ab"/>
    <path id="Path_15" data-name="Path 15" d="M41.2,12.754a1.288,1.288,0,0,0,1.633-.805,1.675,1.675,0,0,1,2.12-1.046,4.243,4.243,0,0,0,5.385-2.654A1.287,1.287,0,1,0,47.9,7.422a1.668,1.668,0,0,1-2.121,1.043,4.256,4.256,0,0,0-5.384,2.655A1.289,1.289,0,0,0,41.2,12.754Z" transform="translate(180.177 15.401)" fill="#8bd6ab"/>
    <path id="Path_16" data-name="Path 16" d="M60.376,31.818a1.694,1.694,0,0,0-.733-.269A87.148,87.148,0,0,0,63.8,7.834,8.426,8.426,0,0,0,60.272.778,5.364,5.364,0,0,0,54.779.72c-3.843,1.943-6.591,7.659-8.8,12.254l-.376.779a7.329,7.329,0,0,0-4.077-5.059,6.078,6.078,0,0,0-4.77-4.649,3.835,3.835,0,0,0-.1-.39A4.415,4.415,0,0,0,30.247,1.13a4.752,4.752,0,0,0-6.882,2.995,5.7,5.7,0,0,0-4.258,5.411,6.329,6.329,0,0,0-4.823,6.117,6.209,6.209,0,0,0,.436,2.278,4.892,4.892,0,0,0-1.126,3.125,4.828,4.828,0,0,0,.419,1.972A6.889,6.889,0,0,0,8.888,20.6a1.261,1.261,0,1,0,.039,2.522c.044,0,.084,0,.125,0a4.493,4.493,0,0,1,3.142,1.69c-2.04.576-4.5,1.514-5.648,3.635a6.3,6.3,0,0,0-.311,4.648,2.153,2.153,0,0,0-.322,1.239l2.19,30.5a7.265,7.265,0,0,0,7.322,6.819H51.538a7.26,7.26,0,0,0,7.32-6.8L61.1,33.3c0-.008,0-.015,0-.023A1.623,1.623,0,0,0,60.376,31.818ZM46.654,17.359c.509-.932,1.065-2.087,1.653-3.311,1.934-4.025,4.584-9.536,7.65-11.087A2.853,2.853,0,0,1,58.9,2.913a6.044,6.044,0,0,1,2.326,4.856A84.8,84.8,0,0,1,57.1,31.088c-.084.264-.269.8-.533,1.526l-2.192.955a1.2,1.2,0,0,0-.139.072,4.02,4.02,0,0,1-4.105,0l-.917-.54a6.742,6.742,0,0,0-3.42-.931l-.044,0a6.73,6.73,0,0,0-3.463.928l-.916.54a4.1,4.1,0,0,1-1.647.509c.032-.11.069-.217.1-.325.353-1.174.731-2.331,1.127-3.48.151-.436.307-.87.464-1.3q.5-1.367,1.034-2.706c.16-.4.315-.8.48-1.2A83.176,83.176,0,0,1,46.654,17.359Zm-16.4,2.991c.151-.189.3-.373.436-.552a.006.006,0,0,1,0-.005,3.1,3.1,0,0,0,.265-.407,2.655,2.655,0,0,0,.244-1.88l5.37-1.151a2.648,2.648,0,0,0,1.4,1.864c.2.106.4.212.611.322.174.09.347.183.522.276.084.044.169.088.252.134.153.084.3.178.45.27.127.077.253.156.377.241.143.1.279.2.416.313.12.1.234.2.347.308s.243.237.355.368a4.336,4.336,0,0,1,.544.762c-.545,1.18-1.059,2.384-1.555,3.6-.077.188-.16.371-.235.559a13.24,13.24,0,0,0-4.455,2.18,7.687,7.687,0,0,1-6.3,1.5l-.781-3.5C27.995,23.173,29.143,21.738,30.254,20.35Zm6.38-7.657a.535.535,0,0,1,.624.4.506.506,0,0,1-.075.393.526.526,0,0,1-.331.227l-7.107,1.524a.539.539,0,0,1-.633-.4.528.528,0,0,1,.407-.62l3.776-.81Zm-4.158,19.5c-.1.006-.2.009-.295.019a6.707,6.707,0,0,0-2.051.533l-.246-1.1c.371.03.74.061,1.086.061A10.079,10.079,0,0,0,37.1,29.6a15.818,15.818,0,0,1,1.783-1.088c-.118.329-.235.657-.35.987-.082.237-.171.47-.251.709Q37.712,31.893,37.2,33.6l-.856-.5a6.742,6.742,0,0,0-3.42-.931l-.048,0C32.746,32.172,32.611,32.187,32.475,32.195ZM17.087,19.156l.843-.681-.547-.924a3.74,3.74,0,0,1-.524-1.9,3.826,3.826,0,0,1,3.717-3.794l1.562-.064-.364-1.49a3.049,3.049,0,0,1-.093-.729,3.165,3.165,0,0,1,2.946-3.116l1.189-.088V5.116a2.156,2.156,0,0,1,3.595-1.493l.9.8.865-.837a1.822,1.822,0,0,1,3.014.784,1.612,1.612,0,0,1,.06.67L34.1,6.446H35.55A3.513,3.513,0,0,1,39.073,9.67l.058.828.8.275a4.811,4.811,0,0,1,3.288,4.644,4.491,4.491,0,0,1-.844,2.5,13.654,13.654,0,0,0-2.568-1.6c-.2-.1-.4-.206-.594-.313a.276.276,0,0,1-.145-.216.71.71,0,0,1,.179-.56,2.668,2.668,0,0,0,.6-2.329l-.156-.695a2.67,2.67,0,0,0-1.2-1.688,2.765,2.765,0,0,0-2.064-.363l-.345.074h-.012l-3.776.81-3.685.788a2.719,2.719,0,0,0-1.721,1.176,2.624,2.624,0,0,0-.372,2.024l.077.343v0s0,0,0,.005l.076.342a2.7,2.7,0,0,0,1.591,1.888.772.772,0,0,1,.426.407c.033.093.014.141-.06.262h0c-.127.168-.265.338-.405.513s-.288.362-.437.554c-.05.064-.1.131-.148.2-.107.142-.214.287-.319.439-.058.082-.113.166-.17.252-.1.148-.192.3-.284.456-.054.091-.107.18-.158.275-.1.177-.184.362-.27.551-.037.081-.077.158-.111.242a6.858,6.858,0,0,0-.293.865c-.013.048-.018.1-.03.149a6.753,6.753,0,0,0-.144.8c-.013.111-.015.227-.023.342-.01.149-.03.29-.03.445l-.015-.019c-.018-.023-.036-.043-.053-.066-.224-.289-.448-.555-.673-.807-.071-.079-.143-.156-.215-.232q-.284-.3-.569-.565c-.062-.057-.124-.119-.187-.174a8.866,8.866,0,0,0-.726-.575c-.068-.048-.138-.088-.206-.134-.183-.12-.365-.231-.551-.329-.09-.048-.179-.095-.27-.137a5.651,5.651,0,0,0-.579-.238c-.064-.023-.129-.053-.193-.073a5.455,5.455,0,0,0-.637-.158c-.024-.005-.049,0-.073-.006-.044-.008-.086-.024-.13-.03-.149-.021-.291-.013-.437-.023-.1-.006-.2-.028-.307-.028-.031,0-.063.008-.1.008a5.306,5.306,0,0,0-.587.049c-.1.013-.193.02-.289.038a6.127,6.127,0,0,0-.742.184c-.037.011-.073.02-.111.033a8.131,8.131,0,0,0-1.817.879,2.361,2.361,0,0,1-.179-.9A2.436,2.436,0,0,1,17.087,19.156ZM8.821,29.625c.544-1,1.865-1.772,4.159-2.415a6.979,6.979,0,0,0,2.877-1.618c.367-.344.71-.635,1.042-.9a5.767,5.767,0,0,1,2.74-1.377l.054-.006a2.666,2.666,0,0,1,.745.021c.063.011.127.033.192.049a2.735,2.735,0,0,1,.358.1c.077.029.154.073.233.108.112.053.223.1.334.168.087.052.175.119.262.178.1.072.208.137.314.221s.2.17.293.257.2.166.293.264.217.232.327.352c.089.1.178.187.268.291.122.144.246.308.369.467.078.1.156.192.234.3.14.192.282.4.423.617.062.093.125.177.187.272q.307.475.618,1.011a9.41,9.41,0,0,1,.849,6.165c-.068-.006-.135-.016-.2-.026a4.049,4.049,0,0,1-1.392-.488l-.917-.54a6.742,6.742,0,0,0-3.42-.931l-.044,0a6.731,6.731,0,0,0-3.463.928l-.446.262a4.92,4.92,0,0,1-5.046,0l-1.73-1.019a0,0,0,0,1,0,0,2.232,2.232,0,0,0-.726-.269A3.559,3.559,0,0,1,8.821,29.625ZM56.3,64.7a4.717,4.717,0,0,1-4.752,4.426H15.428a4.721,4.721,0,0,1-4.754-4.45L8.533,34.867l1.119.658a7.852,7.852,0,0,0,7.868,0l.446-.262a4.012,4.012,0,0,1,4.105,0l.917.54a6.724,6.724,0,0,0,3.775.905c.116-.005.232-.005.349-.015.014,0,.027-.009.042-.01a6.709,6.709,0,0,0,2.536-.812,1.238,1.238,0,0,0,.224-.068l.917-.54a4.012,4.012,0,0,1,4.105,0l.917.54A6.745,6.745,0,0,0,39,36.714c.022,0,.045,0,.067,0a6.705,6.705,0,0,0,1.124-.052c.214-.026.421-.079.63-.126.1-.024.2-.045.3-.074a6.672,6.672,0,0,0,1.652-.665h0l.917-.54a4.012,4.012,0,0,1,4.105,0l.917.54a6.742,6.742,0,0,0,3.447.926c.019,0,.04,0,.059,0a6.746,6.746,0,0,0,3.349-.888l2.524-1.1a1.372,1.372,0,0,0,.143-.1l.2-.086Z" transform="translate(172.195 13.525)" fill="#8bd6ab"/>
    <path id="Path_17" data-name="Path 17" d="M12.2,43.577H21.2A1.287,1.287,0,0,0,21.2,41H12.2a1.287,1.287,0,1,0,0,2.573Z" transform="translate(173.825 24.185)" fill="#8bd6ab"/>
    <path id="Path_18" data-name="Path 18" d="M12.2,47.577H23.776a1.287,1.287,0,1,0,0-2.573H12.2a1.287,1.287,0,1,0,0,2.573Z" transform="translate(173.794 25.225)" fill="#8bd6ab"/>
    <path id="Path_19" data-name="Path 19" d="M26.349,49H12.2a1.287,1.287,0,0,0,0,2.573H26.349a1.287,1.287,0,0,0,0-2.573Z" transform="translate(173.764 26.11)" fill="#8bd6ab"/>
    <path id="Path_20" data-name="Path 20" d="M29.771,49H27.2a1.287,1.287,0,0,0,0,2.573h2.573a1.287,1.287,0,0,0,0-2.573Z" transform="translate(177.135 26.11)" fill="#8bd6ab"/>
  </g>
</svg>
