<svg id="instagram-svgrepo-com_1_" data-name="instagram-svgrepo-com (1)" xmlns="http://www.w3.org/2000/svg" width="24.333" height="24.333" viewBox="0 0 24.333 24.333">
  <g id="Group_62" data-name="Group 62">
    <g id="Group_61" data-name="Group 61">
      <path id="Path_46" data-name="Path 46" d="M140.463,135a5.463,5.463,0,1,0,5.462,5.463A5.469,5.469,0,0,0,140.463,135Zm0,9.932a4.469,4.469,0,1,1,4.469-4.469A4.474,4.474,0,0,1,140.463,144.932Z" transform="translate(-128.296 -128.296)" fill="#8bd6ab"/>
      <path id="Path_47" data-name="Path 47" d="M321.738,90a1.738,1.738,0,1,0,1.738,1.738A1.74,1.74,0,0,0,321.738,90Zm0,2.483a.745.745,0,1,1,.745-.745A.746.746,0,0,1,321.738,92.483Z" transform="translate(-304.109 -85.531)" fill="#8bd6ab"/>
      <path id="Path_48" data-name="Path 48" d="M178.476,175a3.476,3.476,0,1,0,3.476,3.476A3.48,3.48,0,0,0,178.476,175Zm0,5.959a2.483,2.483,0,1,1,2.483-2.483A2.486,2.486,0,0,1,178.476,180.959Z" transform="translate(-166.31 -166.31)" fill="#8bd6ab"/>
      <path id="Path_49" data-name="Path 49" d="M64.4,45H54.966A4.972,4.972,0,0,0,50,49.966v9.684a4.972,4.972,0,0,0,4.966,4.966H64.4a4.972,4.972,0,0,0,4.966-4.966V49.966A4.972,4.972,0,0,0,64.4,45Zm3.973,14.649A3.977,3.977,0,0,1,64.4,63.622H54.966a3.977,3.977,0,0,1-3.973-3.973V49.966a3.977,3.977,0,0,1,3.973-3.973H64.4a3.977,3.977,0,0,1,3.973,3.973Z" transform="translate(-47.517 -42.765)" fill="#8bd6ab"/>
      <path id="Path_50" data-name="Path 50" d="M19.367,0H4.966A4.972,4.972,0,0,0,0,4.966v14.4a4.972,4.972,0,0,0,4.966,4.966h14.4a4.972,4.972,0,0,0,4.966-4.966V4.966A4.972,4.972,0,0,0,19.367,0ZM23.34,19.367a3.977,3.977,0,0,1-3.973,3.973H4.966A3.977,3.977,0,0,1,.993,19.367V4.966A3.977,3.977,0,0,1,4.966.993h14.4A3.977,3.977,0,0,1,23.34,4.966Z" fill="#8bd6ab"/>
    </g>
  </g>
</svg>
