<svg id="instagram-svgrepo-com_1_" data-name="instagram-svgrepo-com (1)" xmlns="http://www.w3.org/2000/svg" width="17.746" height="17.746" viewBox="0 0 17.746 17.746">
  <g id="Group_62" data-name="Group 62">
    <g id="Group_61" data-name="Group 61">
      <path id="Path_46" data-name="Path 46" d="M138.984,135a3.984,3.984,0,1,0,3.984,3.984A3.988,3.988,0,0,0,138.984,135Zm0,7.243a3.259,3.259,0,1,1,3.26-3.26A3.263,3.263,0,0,1,138.984,142.243Z" transform="translate(-130.111 -130.111)" fill="#fff"/>
      <path id="Path_47" data-name="Path 47" d="M321.268,90a1.268,1.268,0,1,0,1.268,1.268A1.269,1.269,0,0,0,321.268,90Zm0,1.811a.543.543,0,1,1,.543-.543A.544.544,0,0,1,321.268,91.811Z" transform="translate(-308.411 -86.741)" fill="#fff"/>
      <path id="Path_48" data-name="Path 48" d="M177.535,175a2.535,2.535,0,1,0,2.535,2.535A2.538,2.538,0,0,0,177.535,175Zm0,4.346a1.811,1.811,0,1,1,1.811-1.811A1.813,1.813,0,0,1,177.535,179.346Z" transform="translate(-168.662 -168.662)" fill="#fff"/>
      <path id="Path_49" data-name="Path 49" d="M60.5,45H53.622A3.626,3.626,0,0,0,50,48.622v7.062a3.626,3.626,0,0,0,3.622,3.622H60.5a3.626,3.626,0,0,0,3.622-3.622V48.622A3.626,3.626,0,0,0,60.5,45Zm2.9,10.684a2.9,2.9,0,0,1-2.9,2.9H53.622a2.9,2.9,0,0,1-2.9-2.9V48.622a2.9,2.9,0,0,1,2.9-2.9H60.5a2.9,2.9,0,0,1,2.9,2.9Z" transform="translate(-48.189 -43.37)" fill="#fff"/>
      <path id="Path_50" data-name="Path 50" d="M14.124,0H3.622A3.626,3.626,0,0,0,0,3.622v10.5a3.626,3.626,0,0,0,3.622,3.622h10.5a3.626,3.626,0,0,0,3.622-3.622V3.622A3.626,3.626,0,0,0,14.124,0Zm2.9,14.124a2.9,2.9,0,0,1-2.9,2.9H3.622a2.9,2.9,0,0,1-2.9-2.9V3.622a2.9,2.9,0,0,1,2.9-2.9h10.5a2.9,2.9,0,0,1,2.9,2.9Z" fill="#fff"/>
    </g>
  </g>
</svg>
