<svg xmlns="http://www.w3.org/2000/svg" width="32.616" height="13.167" viewBox="0 0 32.616 13.167">
  <g id="Group_106" data-name="Group 106" transform="translate(-1620 -7747.011)">
    <g id="instagram-svgrepo-com_1_" data-name="instagram-svgrepo-com (1)" transform="translate(1620 7747.011)">
      <g id="Group_62" data-name="Group 62">
        <g id="Group_61" data-name="Group 61">
          <path id="Path_46" data-name="Path 46" d="M137.955,135a2.955,2.955,0,1,0,2.955,2.955A2.958,2.958,0,0,0,137.955,135Zm0,5.373a2.418,2.418,0,1,1,2.418-2.418A2.421,2.421,0,0,1,137.955,140.373Z" transform="translate(-131.372 -131.372)" fill="#8bd6ab"/>
          <path id="Path_47" data-name="Path 47" d="M320.94,90a.94.94,0,1,0,.94.94A.941.941,0,0,0,320.94,90Zm0,1.343a.4.4,0,1,1,.4-.4A.4.4,0,0,1,320.94,91.343Z" transform="translate(-311.401 -87.581)" fill="#8bd6ab"/>
          <path id="Path_48" data-name="Path 48" d="M176.881,175a1.881,1.881,0,1,0,1.881,1.881A1.883,1.883,0,0,0,176.881,175Zm0,3.224a1.343,1.343,0,1,1,1.343-1.343A1.345,1.345,0,0,1,176.881,178.224Z" transform="translate(-170.297 -170.297)" fill="#8bd6ab"/>
          <path id="Path_49" data-name="Path 49" d="M57.793,45H52.687A2.69,2.69,0,0,0,50,47.687v5.24a2.69,2.69,0,0,0,2.687,2.687h5.106a2.69,2.69,0,0,0,2.687-2.687v-5.24A2.69,2.69,0,0,0,57.793,45Zm2.15,7.928a2.152,2.152,0,0,1-2.15,2.15H52.687a2.152,2.152,0,0,1-2.15-2.15v-5.24a2.152,2.152,0,0,1,2.15-2.15h5.106a2.152,2.152,0,0,1,2.15,2.15Z" transform="translate(-48.657 -43.791)" fill="#8bd6ab"/>
          <path id="Path_50" data-name="Path 50" d="M10.48,0H2.687A2.69,2.69,0,0,0,0,2.687V10.48a2.69,2.69,0,0,0,2.687,2.687H10.48a2.69,2.69,0,0,0,2.687-2.687V2.687A2.69,2.69,0,0,0,10.48,0Zm2.15,10.48a2.152,2.152,0,0,1-2.15,2.15H2.687a2.152,2.152,0,0,1-2.15-2.15V2.687A2.152,2.152,0,0,1,2.687.537H10.48a2.152,2.152,0,0,1,2.15,2.15Z" fill="#8bd6ab"/>
        </g>
      </g>
    </g>
    <g id="XMLID_21_" transform="translate(1639.449 7747.011)">
      <g id="Group_69" data-name="Group 69">
        <g id="Group_68" data-name="Group 68">
          <path id="Path_52" data-name="Path 52" d="M12.361,0H.806A.807.807,0,0,0,0,.806V12.361a.807.807,0,0,0,.806.806H12.361a.807.807,0,0,0,.806-.806V.806A.807.807,0,0,0,12.361,0Zm.269,12.361a.269.269,0,0,1-.269.269H.806a.269.269,0,0,1-.269-.269V.806A.269.269,0,0,1,.806.537H12.361a.269.269,0,0,1,.269.269Z" fill="#8bd6ab"/>
          <path id="Path_53" data-name="Path 53" d="M140.638,43.763H139.3V42.42h1.074a.269.269,0,0,0,.268-.269V40.269a.269.269,0,0,0-.268-.269h-1.611a1.952,1.952,0,0,0-1.885,1.089,2.617,2.617,0,0,0-.263,1.061v1.613h-1.342a.269.269,0,0,0-.268.269v2.15a.269.269,0,0,0,.268.269h1.074v4.166a.269.269,0,0,0,.268.269h2.416a.269.269,0,0,0,.268-.269V46.182h1.074a.269.269,0,0,0,.266-.231l.268-1.881a.269.269,0,0,0-.266-.307Zm-.5,1.881h-1.109a.269.269,0,0,0-.268.269v4.435h-1.879V46.182a.269.269,0,0,0-.268-.269h-1.074V44.3h1.342a.269.269,0,0,0,.268-.269V42.151a2.1,2.1,0,0,1,.214-.836,1.44,1.44,0,0,1,1.4-.777H140.1v1.344H139.3a.526.526,0,0,0-.537.538v1.613a.269.269,0,0,0,.268.269h1.3Z" transform="translate(-131.37 -38.926)" fill="#8bd6ab"/>
        </g>
      </g>
    </g>
  </g>
</svg>
